<svg id="Layer_1" data-name="Layer 1" xmlns="http://www.w3.org/2000/svg" viewBox="0 0 193.95 140.98"><defs><style>.cls-1,.cls-2{fill:#dd5d29;}.cls-1{stroke:#dd5d29;stroke-miterlimit:10;}</style></defs><title>logo</title><path class="cls-1" d="M73.55,145.14c-3.21-.87-5.27-3.23-7.38-5.57a231.22,231.22,0,0,1-30.75-42c-5.29-9.45-9.56-19.3-11.74-30C18.74,43.36,32.43,18.08,55.48,9a52.45,52.45,0,0,1,68.76,30c4.39,11.28,4.41,22.75,1.12,34.31-3.09,10.86-8.1,20.84-14,30.41a242.91,242.91,0,0,1-28.73,37.62,13.13,13.13,0,0,1-5.82,3.85ZM110.19,57.6a35,35,0,1,0-35,35A35,35,0,0,0,110.19,57.6Z" transform="translate(-22.18 -4.65)"/><path class="cls-2" d="M56.88,37.9h9.64l6.35,17.37c.78,2.31,1.46,4.81,2.25,7.22h.24c.78-2.41,1.44-4.91,2.23-7.22L83.73,37.9h9.65V77h-8V62.65c0-3.81.71-9.5,1.13-13.29h-.24L83,58.62l-5.53,15H72.57L67,58.62l-3.12-9.26h-.24c.41,3.79,1.13,9.48,1.13,13.29V77H56.88Z" transform="translate(-22.18 -4.65)"/><text x="-22.18" y="-4.65"></text></svg>