<svg id="Layer_1" data-name="Layer 1" xmlns="http://www.w3.org/2000/svg" viewBox="0 0 198.05 46.3"><defs><style>.cls-1{fill:#dd5d29;}.cls-2{fill:#dd5d28;}</style></defs><title>meshdname</title><path class="cls-1" d="M22.13,52h9.64l6.35,17.38c.78,2.3,1.47,4.81,2.25,7.22h.24c.78-2.41,1.45-4.92,2.23-7.22L49,52h9.64v39.1H50.58V76.73c0-3.81.72-9.5,1.13-13.28h-.24L48.26,72.7l-5.52,15H37.83l-5.54-15-3.12-9.25h-.24c.42,3.78,1.13,9.47,1.13,13.28V91.08H22.13Z" transform="translate(-22.13 -45.5)"/><path class="cls-1" d="M68.46,52H93V59.4H77.31v7.85H90.64v7.41H77.31v9H93.57v7.41H68.46Z" transform="translate(-22.13 -45.5)"/><path class="cls-1" d="M99.41,86.15l5.08-6.06c2.78,2.42,6.39,4.08,9.6,4.08,3.69,0,5.5-1.45,5.5-3.77s-2.22-3.25-5.64-4.66l-5.08-2.17c-4.05-1.64-7.89-5-7.89-10.65,0-6.48,5.79-11.66,13.93-11.66a18.09,18.09,0,0,1,12.58,5.13L123,62a12.69,12.69,0,0,0-8.11-3.07c-3,0-5,1.27-5,3.51,0,2.4,2.56,3.27,6,4.63l5,2c4.78,1.93,7.76,5.11,7.76,10.63,0,6.5-5.42,12.12-14.73,12.12A21.53,21.53,0,0,1,99.41,86.15Z" transform="translate(-22.13 -45.5)"/><path class="cls-1" d="M135.87,52h8.84V67.05h13.5V52h8.84v39.1h-8.84V74.76h-13.5V91.08h-8.84Z" transform="translate(-22.13 -45.5)"/><path class="cls-1" d="M189.48,52h11.06c11.94,0,19.64,5.94,19.64,19.38S212.48,91.08,201,91.08H189.48ZM200,84c6.63,0,11.12-3.25,11.12-12.61S206.63,59.1,200,59.1h-1.68V84Z" transform="translate(-22.13 -45.5)"/><text x="-22.13" y="-45.5"></text><path class="cls-2" d="M172.19,60.12a2,2,0,0,1-.25-1.11,28.17,28.17,0,0,1,.44-6.42,12.85,12.85,0,0,1,1.29-3.77,6.48,6.48,0,1,1,9.14,8.64,14.87,14.87,0,0,1-3.74,1.76,29.42,29.42,0,0,1-5.71,1.26,1.58,1.58,0,0,1-.86-.1Zm10.44-5.34a4.33,4.33,0,1,0-6.1.51A4.33,4.33,0,0,0,182.63,54.78Z" transform="translate(-22.13 -45.5)"/></svg>